<svg width="49" height="47" viewBox="0 0 49 47" fill="none" xmlns="http://www.w3.org/2000/svg">
<path d="M25.222 24.1205C24.8738 28.3052 28.364 29.274 31.1922 33.1748C35.4012 38.7716 39.568 37.7766 40.7511 34.2593C41.8773 30.8788 38.77 27.9845 39.0663 24.2593C39.3627 20.534 43.0873 17.5915 42.5636 14.167C42.0399 10.7425 38.0188 9.71343 32.8022 15.2432C29.2678 19.0664 25.6888 19.9849 25.222 24.1205Z" fill="#FFE55E"/>
<path d="M19.176 12.8774C21.8041 15.252 25.2226 15.3892 26.7811 13.3107C28.3397 11.2322 27.4603 7.65995 24.7753 5.42218C22.1472 3.04766 18.7287 2.91038 17.1702 4.98888C15.6685 6.93063 16.5479 10.5029 19.176 12.8774Z" fill="#FFAA00"/>
<path d="M11.2505 23.2065C14.8542 23.9018 18.3665 22.4746 19.0902 19.7285C19.757 17.1193 17.4179 14.3837 13.6956 13.6392C10.0919 12.944 6.57956 14.3712 5.85591 17.1172C5.18906 19.7265 7.64675 22.5113 11.2505 23.2065Z" fill="#FFAA00"/>
<path d="M11.856 35.8499C15.4597 36.5451 18.972 35.1179 19.6956 32.3719C20.3625 29.7626 18.0234 27.0271 14.3011 26.2825C10.6973 25.5873 7.18503 27.0145 6.46138 29.7605C5.79453 32.3698 8.25222 35.1546 11.856 35.8499Z" fill="#FFAA00"/>
</svg>
