<svg width="536" height="522" viewBox="0 0 536 522" fill="none" xmlns="http://www.w3.org/2000/svg">
<path d="M515.507 86.5978C542.236 139.434 536.595 206.665 528.014 260.76C519.741 315.273 508.835 357.068 489.516 393.536C470.556 430.056 443.234 460.882 408.774 482.453C374.724 503.709 333.177 515.657 285.008 519.92C236.788 524.549 181.227 521.389 129.579 495.239C77.8802 469.456 29.7349 420.632 9.91398 360.194C-9.49736 299.441 -0.58424 227.074 38.2481 181.833C76.671 136.906 145.013 119.105 205.184 86.2913C265.714 53.5291 318.123 5.38737 374.082 0.379764C429.989 -4.26128 489.087 34.18 515.507 86.5978Z" fill="#F1C21B"/>
</svg>
