<svg width="94" height="101" viewBox="0 0 94 101" fill="none" xmlns="http://www.w3.org/2000/svg">
<path d="M44.8069 48.4314C49.8164 55.767 56.6664 52.5816 66.3602 55.1075C80.5095 58.5249 85.8268 51.1951 83.0353 43.8118C80.3351 36.7304 71.5349 36.236 67.0537 29.7245C62.5725 23.213 64.5956 13.2958 59.2076 8.39877C53.8195 3.50178 46.0431 7.31469 45.0829 23.5132C44.534 34.614 40.0518 41.0144 44.8069 48.4314Z" fill="#FFAA00"/>
<path d="M52.2356 70.2221C54.0433 62.3602 59.3995 57.0043 63.8745 58.8828C68.3495 60.7614 70.7235 68.6094 68.7527 76.8546C66.9451 84.7165 61.5888 90.0724 57.1138 88.1939C52.6388 86.3153 50.5193 78.3859 52.2356 70.2221Z" fill="#FFAA00"/>
<path d="M28.3165 34.5073C35.662 34.8051 41.2921 30.3547 41.0121 24.8162C40.732 19.2778 34.5807 14.6251 27.3265 14.6292C19.981 14.3314 14.3508 18.7817 14.6309 24.3202C14.8196 29.5568 20.971 34.2096 28.3165 34.5073Z" fill="#FFAA00"/>
<path d="M30.0104 64.0922C35.0928 57.8308 42.308 55.8528 46.0587 59.9495C49.8094 64.0462 48.7846 72.6508 43.7022 78.9122C38.6199 85.1737 31.4046 87.1516 27.6539 83.0549C24.1576 78.8768 25.0194 70.6554 30.0104 64.0922Z" fill="#FFAA00"/>
<path d="M27.4599 60.2736C34.1273 56.4846 37.8267 49.3415 35.3286 43.8507C32.9218 38.6617 25.5568 37.3769 18.635 41.2474C11.9677 45.0365 8.26825 52.1796 10.7663 57.6704C13.1731 62.8594 20.7925 64.0627 27.4599 60.2736Z" fill="#FFAA00"/>
</svg>
