<svg width="79" height="82" viewBox="0 0 79 82" fill="none" xmlns="http://www.w3.org/2000/svg">
<path d="M38.3318 40.6858C31.873 42.0785 31.3594 48.3318 26.3213 54.9574C19.0926 64.6513 21.7896 71.5103 27.2989 72.0225C32.8083 72.5348 36.2775 65.699 42.1523 64.9807C47.8812 63.8916 53.352 69.1653 58.3153 66.6691C63.3515 64.3583 63.7927 56.8409 53.9441 50.1529C47.3419 45.7813 44.8269 39.9251 38.3318 40.6858Z" fill="#D9A6FF"/>
<path d="M20.6968 37.9785C25.0282 42.8247 26.4836 49.0966 23.9762 51.9737C21.2949 54.9231 15.6346 53.3806 11.3031 48.5344C6.97169 43.6882 5.51629 37.4163 8.02377 34.5392C10.705 31.5898 16.3653 33.1323 20.6968 37.9785Z" fill="#D9A6FF"/>
<path d="M52.9849 32.5971C50.1639 38.3355 50.8397 44.3583 54.3052 46.1773C57.7707 47.9962 62.9313 44.9799 65.7523 39.2415C68.5733 33.503 67.8975 27.4803 64.432 25.6613C60.7847 23.918 55.6241 26.9344 52.9849 32.5971Z" fill="#D9A6FF"/>
<path d="M33.5879 23.3123C35.9485 29.8496 34.5214 36.3676 30.6543 37.7485C26.7872 39.1294 21.7435 34.8475 19.3829 28.3101C17.0224 21.7728 18.4495 15.2547 22.3165 13.8738C26.1836 12.493 31.2273 16.7749 33.5879 23.3123Z" fill="#D9A6FF"/>
<path d="M37.0129 22.5144C36.9112 29.0129 40.1469 34.123 44.0472 34.1665C48.1233 34.1369 51.4233 29.0154 51.5954 22.6959C51.6971 16.1974 48.4615 11.0873 44.5611 11.0438C40.5903 10.8213 37.1146 16.016 37.0129 22.5144Z" fill="#D9A6FF"/>
</svg>
