<svg width="83" height="86" viewBox="0 0 83 86" fill="none" xmlns="http://www.w3.org/2000/svg">
<path d="M41.0272 40.9507C37.7094 35.318 31.81 36.9569 24.1281 34.4942C12.9363 30.961 7.60823 35.9164 9.0145 41.3544C10.2834 46.6765 17.7044 47.7381 20.223 52.933C23.1041 57.9613 20.1106 64.8855 24.0298 68.8995C27.8117 72.7976 34.6861 70.7998 37.5971 59.0816C39.4921 51.2309 44.1198 46.866 41.0272 40.9507Z" fill="#FF6E9F"/>
<path d="M37.6955 24.6765C35.2156 30.3803 30.2143 33.4853 26.6548 31.9007C23.0954 30.3162 22.2521 24.172 24.8694 18.5839C27.3493 12.8801 32.2133 9.65931 35.9101 11.3597C39.6068 13.06 40.1754 18.9726 37.6955 24.6765Z" fill="#FF6E9F"/>
<path d="M52.8728 52.5945C46.8636 51.7785 41.7003 54.5107 41.2088 58.5843C40.7172 62.658 45.2489 66.4798 51.2335 67.0387C57.2427 67.8546 62.406 65.1225 62.8975 61.0488C63.3891 56.9752 58.8574 53.1533 52.8728 52.5945Z" fill="#FF6E9F"/>
<path d="M55.207 30.9408C50.3046 35.0741 44.1938 35.8261 41.4858 32.5973C38.7777 29.3686 40.7084 23.2016 45.6107 19.0683C50.5131 14.9349 56.6239 14.183 59.3319 17.4117C62.04 20.6404 60.1093 26.8075 55.207 30.9408Z" fill="#FF6E9F"/>
<path d="M56.7534 33.8984C50.6535 36.077 46.9624 40.9955 48.3576 45.0069C49.7529 49.0182 55.699 50.4895 61.7988 48.311C67.8987 46.1325 71.5898 41.214 70.1946 37.2026C68.7993 33.1913 62.8532 31.7199 56.7534 33.8984Z" fill="#FF6E9F"/>
</svg>
