<svg width="18" height="30" viewBox="0 0 18 30" fill="none" xmlns="http://www.w3.org/2000/svg">
<path d="M12.1446 7.36726C12.1857 7.32103 12.3776 7.16997 13.1314 7.16997L15.6029 7.16905C16.4069 7.16905 17.0608 6.51628 17.0608 5.71382V1.40259C17.0608 0.601503 16.4079 -0.0512695 15.6052 -0.0526428L11.9341 -0.0585938C9.66831 -0.0585938 7.74217 0.687334 6.3639 2.09885C4.99182 3.50396 4.26645 5.46548 4.26645 7.77101V10.0962H1.45808C0.654048 10.0962 0 10.749 0 11.5515V16.1946C0 16.997 0.654048 17.6498 1.45808 17.6498H4.26645V28.4862C4.26645 29.2887 4.9205 29.9415 5.72453 29.9415H10.5382C11.3422 29.9415 11.9962 29.2887 11.9962 28.4862V17.65H15.4291C16.2331 17.65 16.8869 16.997 16.8869 16.195L16.8888 11.5517C16.8888 11.0246 16.6014 10.5368 16.1386 10.2789C15.9242 10.1594 15.6747 10.0962 15.4174 10.0962H11.9962V8.25922C11.9962 7.66046 12.077 7.44371 12.1446 7.36726Z" fill="#5B5B5B"/>
</svg>
